<mxfile host="Electron" agent="Mozilla/5.0 (Windows NT 10.0; Win64; x64) AppleWebKit/537.36 (KHTML, like Gecko) draw.io/25.0.2 Chrome/128.0.6613.186 Electron/32.2.5 Safari/537.36" version="25.0.2">
  <diagram id="C5RBs43oDa-KdzZeNtuy" name="Page-1">
    <mxGraphModel dx="989" dy="659" grid="1" gridSize="10" guides="1" tooltips="1" connect="1" arrows="1" fold="1" page="1" pageScale="1" pageWidth="827" pageHeight="1169" math="0" shadow="0">
      <root>
        <mxCell id="WIyWlLk6GJQsqaUBKTNV-0" />
        <mxCell id="WIyWlLk6GJQsqaUBKTNV-1" parent="WIyWlLk6GJQsqaUBKTNV-0" />
        <mxCell id="pYSet9cH0Mjin8NFX6-j-0" value="файл: algorithm.ixx&lt;div&gt;&lt;span style=&quot;font-weight: normal;&quot;&gt;клас: GreedyReconfigurationTable&lt;/span&gt;&lt;/div&gt;" style="text;html=1;align=left;verticalAlign=middle;whiteSpace=wrap;rounded=0;fontStyle=1" vertex="1" parent="WIyWlLk6GJQsqaUBKTNV-1">
          <mxGeometry y="10" width="190" height="30" as="geometry" />
        </mxCell>
        <mxCell id="pYSet9cH0Mjin8NFX6-j-8" style="edgeStyle=orthogonalEdgeStyle;rounded=0;orthogonalLoop=1;jettySize=auto;html=1;entryX=0.5;entryY=0;entryDx=0;entryDy=0;" edge="1" parent="WIyWlLk6GJQsqaUBKTNV-1" source="pYSet9cH0Mjin8NFX6-j-1" target="pYSet9cH0Mjin8NFX6-j-7">
          <mxGeometry relative="1" as="geometry" />
        </mxCell>
        <mxCell id="pYSet9cH0Mjin8NFX6-j-1" value="Сформувати список процесорів, які підлягають реконфігурації" style="rounded=0;whiteSpace=wrap;html=1;" vertex="1" parent="WIyWlLk6GJQsqaUBKTNV-1">
          <mxGeometry x="121" y="120" width="359" height="40" as="geometry" />
        </mxCell>
        <mxCell id="pYSet9cH0Mjin8NFX6-j-2" value="Процесор підлягає конфігурації, якщо виконуються 2 умови:&lt;br&gt;&lt;div&gt;- процесор відмовив&lt;/div&gt;&lt;div&gt;- таблиця реконфігурації містисть перерозподіли для даного процесору&lt;/div&gt;" style="rounded=1;whiteSpace=wrap;html=1;fontSize=8;align=left;" vertex="1" parent="WIyWlLk6GJQsqaUBKTNV-1">
          <mxGeometry x="551" y="110" width="210" height="60" as="geometry" />
        </mxCell>
        <mxCell id="pYSet9cH0Mjin8NFX6-j-3" style="edgeStyle=orthogonalEdgeStyle;rounded=0;orthogonalLoop=1;jettySize=auto;html=1;entryX=1;entryY=0.5;entryDx=0;entryDy=0;endArrow=oval;endFill=1;" edge="1" parent="WIyWlLk6GJQsqaUBKTNV-1" source="pYSet9cH0Mjin8NFX6-j-2" target="pYSet9cH0Mjin8NFX6-j-1">
          <mxGeometry relative="1" as="geometry" />
        </mxCell>
        <mxCell id="pYSet9cH0Mjin8NFX6-j-4" style="edgeStyle=orthogonalEdgeStyle;rounded=0;orthogonalLoop=1;jettySize=auto;html=1;entryX=0.5;entryY=0;entryDx=0;entryDy=0;" edge="1" parent="WIyWlLk6GJQsqaUBKTNV-1" source="pYSet9cH0Mjin8NFX6-j-5" target="pYSet9cH0Mjin8NFX6-j-1">
          <mxGeometry relative="1" as="geometry" />
        </mxCell>
        <mxCell id="pYSet9cH0Mjin8NFX6-j-5" value="Вхідні дані:" style="swimlane;fontStyle=0;childLayout=stackLayout;horizontal=1;startSize=30;horizontalStack=0;resizeParent=1;resizeParentMax=0;resizeLast=0;collapsible=1;marginBottom=0;whiteSpace=wrap;html=1;align=left;" vertex="1" parent="WIyWlLk6GJQsqaUBKTNV-1">
          <mxGeometry x="201" y="20" width="199" height="60" as="geometry" />
        </mxCell>
        <mxCell id="pYSet9cH0Mjin8NFX6-j-6" value="&lt;span style=&quot;text-align: center;&quot;&gt;Вектор станів системи sv1&lt;/span&gt;" style="text;strokeColor=none;fillColor=none;align=left;verticalAlign=middle;spacingLeft=4;spacingRight=4;overflow=hidden;points=[[0,0.5],[1,0.5]];portConstraint=eastwest;rotatable=0;whiteSpace=wrap;html=1;" vertex="1" parent="pYSet9cH0Mjin8NFX6-j-5">
          <mxGeometry y="30" width="199" height="30" as="geometry" />
        </mxCell>
        <mxCell id="pYSet9cH0Mjin8NFX6-j-7" value="створити порожнє відображення &quot;процесор =&amp;gt; перерозподіл&quot;" style="rounded=0;whiteSpace=wrap;html=1;" vertex="1" parent="WIyWlLk6GJQsqaUBKTNV-1">
          <mxGeometry x="185.5" y="200" width="230" height="40" as="geometry" />
        </mxCell>
        <mxCell id="pYSet9cH0Mjin8NFX6-j-13" style="edgeStyle=orthogonalEdgeStyle;rounded=0;orthogonalLoop=1;jettySize=auto;html=1;entryX=0.5;entryY=0;entryDx=0;entryDy=0;" edge="1" parent="WIyWlLk6GJQsqaUBKTNV-1" source="pYSet9cH0Mjin8NFX6-j-9" target="pYSet9cH0Mjin8NFX6-j-11">
          <mxGeometry relative="1" as="geometry" />
        </mxCell>
        <mxCell id="pYSet9cH0Mjin8NFX6-j-23" style="edgeStyle=orthogonalEdgeStyle;rounded=0;orthogonalLoop=1;jettySize=auto;html=1;entryX=0.5;entryY=0;entryDx=0;entryDy=0;" edge="1" parent="WIyWlLk6GJQsqaUBKTNV-1" source="pYSet9cH0Mjin8NFX6-j-9" target="pYSet9cH0Mjin8NFX6-j-22">
          <mxGeometry relative="1" as="geometry">
            <Array as="points">
              <mxPoint x="460" y="310" />
              <mxPoint x="460" y="600" />
              <mxPoint x="301" y="600" />
            </Array>
          </mxGeometry>
        </mxCell>
        <mxCell id="pYSet9cH0Mjin8NFX6-j-9" value="для кожного процесора, який підлягає реконфігурації" style="strokeWidth=1;html=1;shape=mxgraph.flowchart.loop_limit;whiteSpace=wrap;" vertex="1" parent="WIyWlLk6GJQsqaUBKTNV-1">
          <mxGeometry x="250.5" y="280" width="100" height="60" as="geometry" />
        </mxCell>
        <mxCell id="pYSet9cH0Mjin8NFX6-j-10" style="edgeStyle=orthogonalEdgeStyle;rounded=0;orthogonalLoop=1;jettySize=auto;html=1;entryX=0.5;entryY=0;entryDx=0;entryDy=0;entryPerimeter=0;" edge="1" parent="WIyWlLk6GJQsqaUBKTNV-1" source="pYSet9cH0Mjin8NFX6-j-7" target="pYSet9cH0Mjin8NFX6-j-9">
          <mxGeometry relative="1" as="geometry" />
        </mxCell>
        <mxCell id="pYSet9cH0Mjin8NFX6-j-14" style="edgeStyle=orthogonalEdgeStyle;rounded=0;orthogonalLoop=1;jettySize=auto;html=1;entryX=0.5;entryY=0;entryDx=0;entryDy=0;" edge="1" parent="WIyWlLk6GJQsqaUBKTNV-1" source="pYSet9cH0Mjin8NFX6-j-11" target="pYSet9cH0Mjin8NFX6-j-12">
          <mxGeometry relative="1" as="geometry" />
        </mxCell>
        <mxCell id="pYSet9cH0Mjin8NFX6-j-11" value="обрати найкращий перерозподіл для поточного процесору" style="rounded=0;whiteSpace=wrap;html=1;" vertex="1" parent="WIyWlLk6GJQsqaUBKTNV-1">
          <mxGeometry x="201" y="380" width="199" height="40" as="geometry" />
        </mxCell>
        <mxCell id="pYSet9cH0Mjin8NFX6-j-12" value="за наявності обраного перерозподілу, додати пару &amp;lt;поточний процесор =&amp;gt; перерозподіл&amp;gt; у відображення" style="rounded=0;whiteSpace=wrap;html=1;" vertex="1" parent="WIyWlLk6GJQsqaUBKTNV-1">
          <mxGeometry x="161" y="460" width="279" height="40" as="geometry" />
        </mxCell>
        <mxCell id="pYSet9cH0Mjin8NFX6-j-16" value="" style="strokeWidth=1;html=1;shape=mxgraph.flowchart.loop_limit;whiteSpace=wrap;rotation=180;" vertex="1" parent="WIyWlLk6GJQsqaUBKTNV-1">
          <mxGeometry x="250.5" y="545" width="100" height="40" as="geometry" />
        </mxCell>
        <mxCell id="pYSet9cH0Mjin8NFX6-j-17" style="edgeStyle=orthogonalEdgeStyle;rounded=0;orthogonalLoop=1;jettySize=auto;html=1;entryX=0.5;entryY=1;entryDx=0;entryDy=0;entryPerimeter=0;" edge="1" parent="WIyWlLk6GJQsqaUBKTNV-1" source="pYSet9cH0Mjin8NFX6-j-12" target="pYSet9cH0Mjin8NFX6-j-16">
          <mxGeometry relative="1" as="geometry" />
        </mxCell>
        <mxCell id="pYSet9cH0Mjin8NFX6-j-19" style="edgeStyle=orthogonalEdgeStyle;rounded=0;orthogonalLoop=1;jettySize=auto;html=1;entryX=0;entryY=0.5;entryDx=0;entryDy=0;entryPerimeter=0;" edge="1" parent="WIyWlLk6GJQsqaUBKTNV-1" source="pYSet9cH0Mjin8NFX6-j-16" target="pYSet9cH0Mjin8NFX6-j-9">
          <mxGeometry relative="1" as="geometry">
            <Array as="points">
              <mxPoint x="140" y="565" />
              <mxPoint x="140" y="310" />
            </Array>
          </mxGeometry>
        </mxCell>
        <mxCell id="pYSet9cH0Mjin8NFX6-j-25" style="edgeStyle=orthogonalEdgeStyle;rounded=0;orthogonalLoop=1;jettySize=auto;html=1;entryX=0.5;entryY=0;entryDx=0;entryDy=0;" edge="1" parent="WIyWlLk6GJQsqaUBKTNV-1" source="pYSet9cH0Mjin8NFX6-j-20" target="pYSet9cH0Mjin8NFX6-j-21">
          <mxGeometry relative="1" as="geometry" />
        </mxCell>
        <mxCell id="pYSet9cH0Mjin8NFX6-j-20" value="кожний робочий процесор sv2, реконфігураційне навантаження якого перевищило максимальне, встановити таким що відмовив" style="rounded=0;whiteSpace=wrap;html=1;" vertex="1" parent="WIyWlLk6GJQsqaUBKTNV-1">
          <mxGeometry x="200" y="680" width="200" height="60" as="geometry" />
        </mxCell>
        <mxCell id="pYSet9cH0Mjin8NFX6-j-28" style="edgeStyle=orthogonalEdgeStyle;rounded=0;orthogonalLoop=1;jettySize=auto;html=1;entryX=0.5;entryY=0;entryDx=0;entryDy=0;" edge="1" parent="WIyWlLk6GJQsqaUBKTNV-1" source="pYSet9cH0Mjin8NFX6-j-21" target="pYSet9cH0Mjin8NFX6-j-26">
          <mxGeometry relative="1" as="geometry" />
        </mxCell>
        <mxCell id="pYSet9cH0Mjin8NFX6-j-21" value="кожний неробочий процесор sv2, реконфігурація якого є &lt;b&gt;успішною&lt;/b&gt;, встановити робочим" style="rounded=0;whiteSpace=wrap;html=1;" vertex="1" parent="WIyWlLk6GJQsqaUBKTNV-1">
          <mxGeometry x="200" y="760" width="200" height="50" as="geometry" />
        </mxCell>
        <mxCell id="pYSet9cH0Mjin8NFX6-j-24" style="edgeStyle=orthogonalEdgeStyle;rounded=0;orthogonalLoop=1;jettySize=auto;html=1;entryX=0.5;entryY=0;entryDx=0;entryDy=0;" edge="1" parent="WIyWlLk6GJQsqaUBKTNV-1" source="pYSet9cH0Mjin8NFX6-j-22" target="pYSet9cH0Mjin8NFX6-j-20">
          <mxGeometry relative="1" as="geometry" />
        </mxCell>
        <mxCell id="pYSet9cH0Mjin8NFX6-j-22" value="sv2 = sv1" style="rounded=0;whiteSpace=wrap;html=1;" vertex="1" parent="WIyWlLk6GJQsqaUBKTNV-1">
          <mxGeometry x="260.5" y="620" width="80" height="40" as="geometry" />
        </mxCell>
        <mxCell id="pYSet9cH0Mjin8NFX6-j-26" value="Вихідні дані:" style="swimlane;fontStyle=0;childLayout=stackLayout;horizontal=1;startSize=30;horizontalStack=0;resizeParent=1;resizeParentMax=0;resizeLast=0;collapsible=1;marginBottom=0;whiteSpace=wrap;html=1;" vertex="1" parent="WIyWlLk6GJQsqaUBKTNV-1">
          <mxGeometry x="200" y="840" width="200" height="60" as="geometry" />
        </mxCell>
        <mxCell id="pYSet9cH0Mjin8NFX6-j-27" value="Вектор станів системи sv2" style="text;strokeColor=none;fillColor=none;align=left;verticalAlign=middle;spacingLeft=4;spacingRight=4;overflow=hidden;points=[[0,0.5],[1,0.5]];portConstraint=eastwest;rotatable=0;whiteSpace=wrap;html=1;" vertex="1" parent="pYSet9cH0Mjin8NFX6-j-26">
          <mxGeometry y="30" width="200" height="30" as="geometry" />
        </mxCell>
        <mxCell id="pYSet9cH0Mjin8NFX6-j-30" style="edgeStyle=orthogonalEdgeStyle;rounded=0;orthogonalLoop=1;jettySize=auto;html=1;entryX=1;entryY=0.5;entryDx=0;entryDy=0;endArrow=diamond;endFill=1;" edge="1" parent="WIyWlLk6GJQsqaUBKTNV-1" source="pYSet9cH0Mjin8NFX6-j-29" target="pYSet9cH0Mjin8NFX6-j-11">
          <mxGeometry relative="1" as="geometry" />
        </mxCell>
        <mxCell id="pYSet9cH0Mjin8NFX6-j-29" value="створити порожнє відображення &quot;перерозподіл =&amp;gt; значення оцінки&quot;" style="rounded=0;whiteSpace=wrap;html=1;" vertex="1" parent="WIyWlLk6GJQsqaUBKTNV-1">
          <mxGeometry x="520" y="380" width="200" height="40" as="geometry" />
        </mxCell>
        <mxCell id="pYSet9cH0Mjin8NFX6-j-36" style="edgeStyle=orthogonalEdgeStyle;rounded=0;orthogonalLoop=1;jettySize=auto;html=1;entryX=0.5;entryY=0;entryDx=0;entryDy=0;" edge="1" parent="WIyWlLk6GJQsqaUBKTNV-1" source="pYSet9cH0Mjin8NFX6-j-31" target="pYSet9cH0Mjin8NFX6-j-35">
          <mxGeometry relative="1" as="geometry" />
        </mxCell>
        <mxCell id="pYSet9cH0Mjin8NFX6-j-53" style="edgeStyle=orthogonalEdgeStyle;rounded=0;orthogonalLoop=1;jettySize=auto;html=1;entryX=0.5;entryY=0;entryDx=0;entryDy=0;" edge="1" parent="WIyWlLk6GJQsqaUBKTNV-1" source="pYSet9cH0Mjin8NFX6-j-31" target="pYSet9cH0Mjin8NFX6-j-52">
          <mxGeometry relative="1" as="geometry">
            <Array as="points">
              <mxPoint x="510" y="490" />
              <mxPoint x="510" y="930" />
              <mxPoint x="620" y="930" />
            </Array>
          </mxGeometry>
        </mxCell>
        <mxCell id="pYSet9cH0Mjin8NFX6-j-31" value="для кожного перерозподілу поточного процесору" style="strokeWidth=1;html=1;shape=mxgraph.flowchart.loop_limit;whiteSpace=wrap;" vertex="1" parent="WIyWlLk6GJQsqaUBKTNV-1">
          <mxGeometry x="570" y="460" width="100" height="60" as="geometry" />
        </mxCell>
        <mxCell id="pYSet9cH0Mjin8NFX6-j-32" style="edgeStyle=orthogonalEdgeStyle;rounded=0;orthogonalLoop=1;jettySize=auto;html=1;entryX=0.5;entryY=0;entryDx=0;entryDy=0;entryPerimeter=0;" edge="1" parent="WIyWlLk6GJQsqaUBKTNV-1" source="pYSet9cH0Mjin8NFX6-j-29" target="pYSet9cH0Mjin8NFX6-j-31">
          <mxGeometry relative="1" as="geometry" />
        </mxCell>
        <mxCell id="pYSet9cH0Mjin8NFX6-j-42" style="edgeStyle=orthogonalEdgeStyle;rounded=0;orthogonalLoop=1;jettySize=auto;html=1;entryX=0.5;entryY=0;entryDx=0;entryDy=0;" edge="1" parent="WIyWlLk6GJQsqaUBKTNV-1" source="pYSet9cH0Mjin8NFX6-j-35" target="pYSet9cH0Mjin8NFX6-j-41">
          <mxGeometry relative="1" as="geometry" />
        </mxCell>
        <mxCell id="pYSet9cH0Mjin8NFX6-j-35" value="Перерозподіл є &lt;b&gt;можливим&lt;/b&gt; ?" style="shape=hexagon;perimeter=hexagonPerimeter2;whiteSpace=wrap;html=1;fixedSize=1;" vertex="1" parent="WIyWlLk6GJQsqaUBKTNV-1">
          <mxGeometry x="560" y="560" width="120" height="40" as="geometry" />
        </mxCell>
        <mxCell id="pYSet9cH0Mjin8NFX6-j-37" value="" style="strokeWidth=1;html=1;shape=mxgraph.flowchart.loop_limit;whiteSpace=wrap;rotation=180;" vertex="1" parent="WIyWlLk6GJQsqaUBKTNV-1">
          <mxGeometry x="570" y="870" width="100" height="40" as="geometry" />
        </mxCell>
        <mxCell id="pYSet9cH0Mjin8NFX6-j-39" value="ні" style="text;html=1;align=center;verticalAlign=middle;whiteSpace=wrap;rounded=0;" vertex="1" parent="WIyWlLk6GJQsqaUBKTNV-1">
          <mxGeometry x="680" y="545" width="30" height="30" as="geometry" />
        </mxCell>
        <mxCell id="pYSet9cH0Mjin8NFX6-j-45" style="edgeStyle=orthogonalEdgeStyle;rounded=0;orthogonalLoop=1;jettySize=auto;html=1;entryX=0.5;entryY=0;entryDx=0;entryDy=0;" edge="1" parent="WIyWlLk6GJQsqaUBKTNV-1" source="pYSet9cH0Mjin8NFX6-j-41" target="pYSet9cH0Mjin8NFX6-j-43">
          <mxGeometry relative="1" as="geometry" />
        </mxCell>
        <mxCell id="pYSet9cH0Mjin8NFX6-j-41" value="застосувати перерозподіл до поточного навантаження" style="rounded=0;whiteSpace=wrap;html=1;" vertex="1" parent="WIyWlLk6GJQsqaUBKTNV-1">
          <mxGeometry x="540" y="630" width="160" height="40" as="geometry" />
        </mxCell>
        <mxCell id="pYSet9cH0Mjin8NFX6-j-46" style="edgeStyle=orthogonalEdgeStyle;rounded=0;orthogonalLoop=1;jettySize=auto;html=1;entryX=0.5;entryY=0;entryDx=0;entryDy=0;" edge="1" parent="WIyWlLk6GJQsqaUBKTNV-1" source="pYSet9cH0Mjin8NFX6-j-43" target="pYSet9cH0Mjin8NFX6-j-44">
          <mxGeometry relative="1" as="geometry" />
        </mxCell>
        <mxCell id="pYSet9cH0Mjin8NFX6-j-43" value="оцінити поточне навантаження" style="rounded=0;whiteSpace=wrap;html=1;" vertex="1" parent="WIyWlLk6GJQsqaUBKTNV-1">
          <mxGeometry x="540" y="695" width="160" height="30" as="geometry" />
        </mxCell>
        <mxCell id="pYSet9cH0Mjin8NFX6-j-44" value="додати перерозподіл та оцінку поточного навантаження до відображення" style="rounded=0;whiteSpace=wrap;html=1;" vertex="1" parent="WIyWlLk6GJQsqaUBKTNV-1">
          <mxGeometry x="540" y="752.5" width="160" height="65" as="geometry" />
        </mxCell>
        <mxCell id="pYSet9cH0Mjin8NFX6-j-47" style="edgeStyle=orthogonalEdgeStyle;rounded=0;orthogonalLoop=1;jettySize=auto;html=1;entryX=0.5;entryY=1;entryDx=0;entryDy=0;entryPerimeter=0;" edge="1" parent="WIyWlLk6GJQsqaUBKTNV-1" source="pYSet9cH0Mjin8NFX6-j-44" target="pYSet9cH0Mjin8NFX6-j-37">
          <mxGeometry relative="1" as="geometry" />
        </mxCell>
        <mxCell id="pYSet9cH0Mjin8NFX6-j-48" style="edgeStyle=orthogonalEdgeStyle;rounded=0;orthogonalLoop=1;jettySize=auto;html=1;entryX=1;entryY=0.5;entryDx=0;entryDy=0;entryPerimeter=0;" edge="1" parent="WIyWlLk6GJQsqaUBKTNV-1" source="pYSet9cH0Mjin8NFX6-j-37" target="pYSet9cH0Mjin8NFX6-j-31">
          <mxGeometry relative="1" as="geometry">
            <Array as="points">
              <mxPoint x="750" y="890" />
              <mxPoint x="750" y="490" />
            </Array>
          </mxGeometry>
        </mxCell>
        <mxCell id="pYSet9cH0Mjin8NFX6-j-50" style="edgeStyle=orthogonalEdgeStyle;rounded=0;orthogonalLoop=1;jettySize=auto;html=1;entryX=0.5;entryY=1;entryDx=0;entryDy=0;entryPerimeter=0;" edge="1" parent="WIyWlLk6GJQsqaUBKTNV-1" source="pYSet9cH0Mjin8NFX6-j-35" target="pYSet9cH0Mjin8NFX6-j-37">
          <mxGeometry relative="1" as="geometry">
            <Array as="points">
              <mxPoint x="720" y="580" />
              <mxPoint x="720" y="850" />
              <mxPoint x="620" y="850" />
            </Array>
          </mxGeometry>
        </mxCell>
        <mxCell id="pYSet9cH0Mjin8NFX6-j-51" value="так" style="text;html=1;align=center;verticalAlign=middle;whiteSpace=wrap;rounded=0;" vertex="1" parent="WIyWlLk6GJQsqaUBKTNV-1">
          <mxGeometry x="620" y="600" width="30" height="30" as="geometry" />
        </mxCell>
        <mxCell id="pYSet9cH0Mjin8NFX6-j-52" value="в якості результату обрати перерозподіл із найменшим значенням оцінки" style="rounded=0;whiteSpace=wrap;html=1;" vertex="1" parent="WIyWlLk6GJQsqaUBKTNV-1">
          <mxGeometry x="540" y="950" width="160" height="50" as="geometry" />
        </mxCell>
      </root>
    </mxGraphModel>
  </diagram>
</mxfile>
